# xmcd CD database file
#
# Track frame offsets:
#	150
#	11682
#	25755
#	38927
#	53997
#	74965
#	87420
#	103060
#	124617
#	144927
#	163790
#	177222
#
# Disc length: 2603 seconds
#
# Revision: 5
# Processed by: cddbd v1.5.2PL0 Copyright (c) Steve Scherf et al.
# Submitted via: CDex 1.70beta2
#
DISCID=a60a290c
DTITLE=Various Artist - Hank Williams på norsk
DYEAR=1995
DGENRE=Country
TTITLE0=Vibeke Saugestad - Jeg sitter i klisteret helt til jeg dør
TTITLE1=Jonas Fjeld - D'ække min skyld
TTITLE2=Sondre Bratland - Luftslott i det blå
TTITLE3=Gunn Heidi Larsen - Flytt deg til sida
TTITLE4=Vibeke Saugestad - Aleine om høsten
TTITLE5=Jonas Fjeld - Jeg er trøtt og lei av å vente
TTITLE6=Gunn Heidi Larsen - Styla Lada
TTITLE7=Sondre Bratland - No ser eg ljos
TTITLE8=Jonas Fjeld - Folk med knuste blikk
TTITLE9=Gunn Heidi Larsen - Du var så lur
TTITLE10=Vibeke Saugestad - Bare ikke bry deg
TTITLE11=Sondre Bratland - Eg er einsam med min gråt
EXTD=Norwegian Tribute to Hank Williams. YEAR: 1995
EXTT0=
EXTT1=
EXTT2=
EXTT3=
EXTT4=
EXTT5=
EXTT6=
EXTT7=
EXTT8=
EXTT9=
EXTT10=
EXTT11=
PLAYORDER=
